<svg xmlns="http://www.w3.org/2000/svg" xmlns:xlink="http://www.w3.org/1999/xlink" version="1.1" id="Layer_1" x="0px" y="0px" width="100px" height="100px" viewBox="0 0 100 100" enable-background="new 0 0 100 100" xml:space="preserve">
<path d="M92.422,47.256c0.042-0.18,0.066-0.366,0.066-0.555c0-1.759-1.923-3.183-4.296-3.183c-0.857,0-1.654,0.187-2.325,0.507  c-1.106-0.307-2.27-0.537-3.477-0.682c-1.048-1.185-2.872-1.969-4.947-1.969c-2.636,0-4.868,1.265-5.617,3.009  c-4.149,1.408-7.342,3.932-8.726,6.997h13.774c-0.003,0.002-0.005,0.003-0.007,0.006c-0.992,0.803-3.626,2.15-10.126,2.15  c-4,0-7.329,1.349-9.897,4.011c-1.134,1.176-2.026,2.524-2.73,3.934c-0.927-4.731-1.291-11.464,1.908-12.767  c9.229-3.76,15.616-11.02,16.367-18.406H100c-2.484-5.501-8.046-10.083-15.315-12.812c0.268-0.471,0.416-0.976,0.416-1.501  c0-2.548-3.419-4.613-7.637-4.613c-0.788,0-1.548,0.072-2.263,0.206C73.846,9.29,70.513,7.92,66.84,8.386  c-4.533,0.575-7.867,3.726-7.447,7.039c0.016,0.121,0.037,0.24,0.063,0.358c-5.299,1.131-10.01,3.169-13.743,5.845  c-0.014-0.003-0.027-0.006-0.041-0.01c-0.445-0.604-1.255-1.009-2.183-1.009c-0.569,0-1.092,0.154-1.516,0.41  c-1.205-0.127-2.439-0.194-3.696-0.194c-3.123,0-6.105,0.408-8.841,1.147c-0.601-0.261-1.287-0.409-2.015-0.409  c-2.122,0-3.883,1.254-4.231,2.901c-1.788,0.988-3.362,2.147-4.671,3.442c-1.222-0.589-2.697-0.934-4.287-0.934  c-4.218,0-7.637,2.421-7.637,5.409c0,0.708,0.194,1.384,0.544,2.004c-2.893,1.861-5.088,4.22-6.287,6.877h15.355  c0.148,0.893,0.677,2.524,2.538,4.032c2.672,2.162,7.133,3.26,13.261,3.26c2.625,0,4.687,0.81,6.302,2.478  c4.16,4.297,3.938,12.68,3.936,12.76l0.013,0.001l-1.895,28.043h0.004c0,0.002-0.001,0.003-0.001,0.005  c0,1.006,3.964,1.822,8.854,1.822c4.889,0,8.853-0.816,8.853-1.822c0-0.002-0.001-0.003-0.001-0.005h0.001l-1.346-21.651  c0.362-2.825,1.3-6.695,3.715-9.189c1.615-1.668,3.677-2.479,6.303-2.479c6.127,0,10.588-1.096,13.259-3.26  c1.76-1.424,2.33-2.959,2.511-3.877h13.243C95.062,49.846,93.914,48.448,92.422,47.256z M40.499,35.335  c-1.527-1.16-3.301-2.167-5.266-2.98h4.82C40.14,33.398,40.289,34.392,40.499,35.335z M46.671,48.437  c-0.568,1.612-0.906,3.462-1.012,5.522c-0.792-2.259-1.979-4.53-3.758-6.374c-2.568-2.662-5.897-4.012-9.896-4.012  c-5.521,0-8.261-0.964-9.588-1.773c-0.309-0.188-0.543-0.37-0.723-0.536H43.09c0.425,0.583,0.891,1.127,1.401,1.634  c1.161,1.152,2.422,1.981,3.65,2.579C47.549,46.36,47.055,47.348,46.671,48.437z M51.071,42.516  c-1.246-0.431-2.644-1.15-3.859-2.356c-1.852-1.84-2.951-4.458-3.282-7.804h17.267c-0.317-0.704-0.705-1.387-1.154-2.046h4.414  c-0.352,1.653-1.274,3.41-2.688,5.078c-2.127,2.512-5.138,4.608-8.707,6.062C52.352,41.738,51.688,42.097,51.071,42.516z"/>
</svg>