<?xml version="1.0" encoding="UTF-8" standalone="no"?>
<svg width="48px" height="48px" viewBox="0 0 48 48" version="1.1" xmlns="http://www.w3.org/2000/svg" xmlns:xlink="http://www.w3.org/1999/xlink" xmlns:sketch="http://www.bohemiancoding.com/sketch/ns">
    <!-- Generator: Sketch 3.0.3 (7891) - http://www.bohemiancoding.com/sketch -->
    <title>logo-48</title>
    <desc>Created with Sketch.</desc>
    <defs>
        <circle id="path-1" cx="24" cy="24" r="24"></circle>
    </defs>
    <g id="Page-1" stroke="none" stroke-width="1" fill="none" fill-rule="evenodd" sketch:type="MSPage">
        <g id="logo-48" sketch:type="MSArtboardGroup">
            <mask id="mask-2" sketch:name="Oval 9" fill="white">
                <use xlink:href="#path-1"></use>
            </mask>
            <use id="Oval-9" fill="#A2D6D4" sketch:type="MSShapeGroup" xlink:href="#path-1"></use>
            <path d="M-5.96607959,18.7635783 C-5.96607959,18.7635783 15.0192831,56.3562376 51.98947,34.292721 C51.98947,34.292721 43.5652973,65.7321615 15.0192831,56.3562376 C-13.526731,46.9803135 -5.96607959,18.7635783 -5.96607959,18.7635783 L-5.96607959,18.7635783 Z" id="bottom-shadow-2" opacity="0.0666903409" fill="#000000" sketch:type="MSShapeGroup" mask="url(#mask-2)"></path>
            <path d="M9.19359782,-0.315702694 C7.71059079,-2.35048391 8.55329634,-4 11.0818943,-4 L36.9186372,-4 C39.4445216,-4 40.289867,-2.3503828 38.8069337,-0.315702694 L25.7900022,17.5443663 C24.8015581,18.9005753 23.2032226,18.9064054 22.2105293,17.5443663 L9.19359782,-0.315702694 Z" id="top-triangle-2" fill="#628B89" sketch:type="MSShapeGroup" mask="url(#mask-2)"></path>
            <path d="M53.5350645,14.1354332 C54.8964108,13.1432449 56,13.693643 56,15.3879295 L56,32.6124248 C56,34.2963477 54.9002552,34.8599114 53.5350645,33.8649211 L41.6370892,25.1933348 C40.7329498,24.534372 40.729063,23.4688151 41.6370892,22.8070195 L53.5350645,14.1354332 L53.5350645,14.1354332 Z" id="top-triangle-3" fill="#628B89" sketch:type="MSShapeGroup" mask="url(#mask-2)"></path>
            <path d="M-5.53506446,33.8645668 C-6.89641077,34.8567551 -8,34.306357 -8,32.6120705 L-8,15.3875752 C-8,13.7036523 -6.9002552,13.1400886 -5.53506446,14.1350789 L6.36291084,22.8066652 C7.26705022,23.465628 7.27093697,24.5311849 6.36291084,25.1929805 L-5.53506446,33.8645668 L-5.53506446,33.8645668 Z" id="top-triangle-4" fill="#628B89" sketch:type="MSShapeGroup" mask="url(#mask-2)"></path>
        </g>
    </g>
</svg>