<?xml version="1.0" encoding="UTF-8" standalone="no"?>
<svg width="363px" height="350px" viewBox="0 0 363 350" version="1.1" xmlns="http://www.w3.org/2000/svg" xmlns:xlink="http://www.w3.org/1999/xlink" xmlns:sketch="http://www.bohemiancoding.com/sketch/ns">
    <!-- Generator: Sketch 3.0.3 (7891) - http://www.bohemiancoding.com/sketch -->
    <title>logo</title>
    <desc>Created with Sketch.</desc>
    <defs>
        <path id="path-1" d="M0.164961711,157.518226 C0.16495823,89.1616587 74.7732828,-0.210349499 181.973826,-0.210336538 C289.17437,-0.210323654 362.726234,83.9312901 362.726234,157.518226 C362.72623,231.105163 270.796933,306.923077 181.973826,306.923077 C93.1507194,306.923086 0.164967803,225.874794 0.164961711,157.518226 Z"></path>
        <path id="path-3" d="M20.2165842,40.3846154 C31.3818958,40.3846154 40.4331683,31.3442118 40.4331683,20.1923077 C40.4331683,9.04040354 31.3818958,0 20.2165842,0 C9.05127248,0 0,9.04040354 0,20.1923077 C0,31.3442118 9.05127248,40.3846154 20.2165842,40.3846154 Z"></path>
        <path id="path-5" d="M251.584158,175.897436 C266.967477,175.897436 279.438119,163.441769 279.438119,148.076923 C279.438119,132.712077 266.967477,120.25641 251.584158,120.25641 C236.20084,120.25641 223.730198,132.712077 223.730198,148.076923 C223.730198,163.441769 236.20084,175.897436 251.584158,175.897436 Z"></path>
        <ellipse id="path-7" cx="20.2165842" cy="20.1923077" rx="20.2165842" ry="20.1923077"></ellipse>
        <path id="path-9" d="M0.03860806,55.718149 C8.28669361,31.4908854 40.440188,0.0175372732 64.1665958,0.0175280449 C87.8930036,0.017521198 79.9151743,67.7108371 64.6369121,96.4813702"></path>
        <path id="path-11" d="M0.03860806,55.718149 C8.28669361,31.4908854 40.440188,0.0175372732 64.1665958,0.0175280449 C87.8930036,0.017521198 79.9151743,67.7108371 64.6369121,96.4813702"></path>
    </defs>
    <g id="Page-1" stroke="none" stroke-width="1" fill="none" fill-rule="evenodd" sketch:type="MSPage">
        <g id="logo" sketch:type="MSArtboardGroup">
            <g sketch:type="MSLayerGroup" id="face-+-ear-r-+-ear-l">
                <g>
                    <g id="face" transform="translate(0.000000, 43.076923)">
                        <mask id="mask-2" sketch:name="Path 4" fill="white">
                            <use xlink:href="#path-1"></use>
                        </mask>
                        <use id="Path-4" fill="#A2D6D4" sketch:type="MSShapeGroup" xlink:href="#path-1"></use>
                        <path d="M373.341354,224.185288 C373.341354,224.185288 310.177479,459.91608 97.7419639,390.044908 C-114.693551,320.173735 -58.0042996,108.606568 -58.0042996,108.606568 C-58.0042996,108.606568 97.7419639,390.044908 373.341354,224.185288 Z" id="bottom-shadow" opacity="0.0666903409" fill="#000000" sketch:type="MSShapeGroup" mask="url(#mask-2)"></path>
                        <path d="M138.572,-3.1083312 C134.200729,-9.12373862 136.676436,-14.0001898 144.108895,-14.0001898 L220.506109,-14.0001898 C227.935322,-14.0001898 230.41792,-9.12875473 226.043004,-3.1083312 L187.58025,49.8211612 C184.668192,53.8285127 179.945475,53.8266726 177.034754,49.8211612 L138.572,-3.1083312 Z" id="top-triangle" fill="#628B89" sketch:type="MSShapeGroup" mask="url(#mask-2)"></path>
                        <path d="M396.209585,110.055489 C402.224992,105.684218 407.101444,108.159925 407.101444,115.592384 L407.101444,191.989598 C407.101444,199.418811 402.230009,201.901409 396.209585,197.526493 L343.280093,159.063739 C339.272741,156.151681 339.274581,151.428964 343.280093,148.518243 L396.209585,110.055489 L396.209585,110.055489 Z" id="right-triangle" fill="#628B89" sketch:type="MSShapeGroup" mask="url(#mask-2)"></path>
                        <path d="M-43.3905725,191.992077 L-43.3905725,115.594863 C-43.3905725,108.16565 -38.5191374,105.683052 -32.4987139,110.057968 L20.4307785,148.520722 C24.43813,151.43278 24.4362899,156.155497 20.4307785,159.066218 L-32.4987139,197.528972 C-38.5141213,201.900243 -43.3905725,199.424536 -43.3905725,191.992077 Z" id="left-triangle" fill="#628B89" sketch:type="MSShapeGroup" mask="url(#mask-2)"></path>
                        <path d="M51.5926441,194.333434 C24.5151794,150.492288 56.2070964,80.9094584 94.2352562,80.9094555 C132.263416,80.9094521 141.600966,101.410253 179.240078,101.410256 C216.879191,101.410259 236.531361,80.9094529 272.527288,80.9094555 C308.523214,80.9094582 342.840714,163.725962 309.766304,194.333434 C276.691892,224.940906 212.982582,194.333429 183.334184,194.333434 C153.685786,194.333439 78.6701103,238.174578 51.5926441,194.333434 Z" id="mask" fill="#628B89" sketch:type="MSShapeGroup" mask="url(#mask-2)"></path>
                        <path d="M167.463431,232.881095 C163.054465,226.813814 165.565902,221.895311 173.053305,221.895311 L191.557631,221.895311 C199.053799,221.895311 201.551664,226.820429 197.147505,232.881095 L190.288607,242.319784 C185.879641,248.387065 178.726488,248.38045 174.322329,242.319784 L167.463431,232.881095 Z" id="nose" fill="#638A89" sketch:type="MSShapeGroup" mask="url(#mask-2)"></path>
                        <path d="M115.009901,175.897436 C130.393219,175.897436 142.863861,163.441769 142.863861,148.076923 C142.863861,132.712077 130.393219,120.25641 115.009901,120.25641 C99.6265827,120.25641 87.1559406,132.712077 87.1559406,148.076923 C87.1559406,163.441769 99.6265827,175.897436 115.009901,175.897436 Z" id="white" fill="#FFFFFF" sketch:type="MSShapeGroup" mask="url(#mask-2)"></path>
                        <g id="Group" mask="url(#mask-2)">
                            <g transform="translate(95.242574, 128.333333)">
                                <mask id="mask-4" sketch:name="iris" fill="white">
                                    <use xlink:href="#path-3"></use>
                                </mask>
                                <use id="iris" stroke="none" fill="#4E4E4E" fill-rule="evenodd" sketch:type="MSShapeGroup" xlink:href="#path-3"></use>
                                <path d="M34.5928218,17.9487179 C38.3145923,17.9487179 41.3316832,14.9352501 41.3316832,11.2179487 C41.3316832,7.50064733 38.3145923,4.48717949 34.5928218,4.48717949 C30.8710512,4.48717949 27.8539604,7.50064733 27.8539604,11.2179487 C27.8539604,14.9352501 30.8710512,17.9487179 34.5928218,17.9487179 Z" id="big-highlight" stroke="none" fill="#FFFFFF" fill-rule="evenodd" sketch:type="MSShapeGroup" mask="url(#mask-4)"></path>
                                <path d="M24.259901,23.3333333 C26.2448453,23.3333333 27.8539604,21.7261505 27.8539604,19.7435897 C27.8539604,17.761029 26.2448453,16.1538462 24.259901,16.1538462 C22.2749567,16.1538462 20.6658416,17.761029 20.6658416,19.7435897 C20.6658416,21.7261505 22.2749567,23.3333333 24.259901,23.3333333 Z" id="small-highlight" stroke="none" fill="#FFFFFF" fill-rule="evenodd" sketch:type="MSShapeGroup" mask="url(#mask-4)"></path>
                            </g>
                        </g>
                        <mask id="mask-6" sketch:name="white" fill="white">
                            <use xlink:href="#path-5"></use>
                        </mask>
                        <use id="white" fill="#FFFFFF" sketch:type="MSShapeGroup" xlink:href="#path-5"></use>
                        <g id="eye" mask="url(#mask-6)">
                            <g transform="translate(231.816832, 128.333333)">
                                <mask id="mask-8" sketch:name="iris" fill="white">
                                    <use xlink:href="#path-7"></use>
                                </mask>
                                <use id="iris" stroke="none" fill="#4E4E4E" fill-rule="evenodd" sketch:type="MSShapeGroup" xlink:href="#path-7"></use>
                                <path d="M36.3898515,18.8461538 C40.111622,18.8461538 43.1287129,15.832686 43.1287129,12.1153846 C43.1287129,8.39808323 40.111622,5.38461538 36.3898515,5.38461538 C32.6680809,5.38461538 29.6509901,8.39808323 29.6509901,12.1153846 C29.6509901,15.832686 32.6680809,18.8461538 36.3898515,18.8461538 Z" id="big-highlight" stroke="none" fill="#FFFFFF" fill-rule="evenodd" sketch:type="MSShapeGroup" mask="url(#mask-8)"></path>
                                <path d="M26.0569307,23.3333333 C28.041875,23.3333333 29.6509901,21.7261505 29.6509901,19.7435897 C29.6509901,17.761029 28.041875,16.1538462 26.0569307,16.1538462 C24.0719864,16.1538462 22.4628713,17.761029 22.4628713,19.7435897 C22.4628713,21.7261505 24.0719864,23.3333333 26.0569307,23.3333333 Z" id="small-highlight" stroke="none" fill="#FFFFFF" fill-rule="evenodd" sketch:type="MSShapeGroup" mask="url(#mask-8)"></path>
                            </g>
                        </g>
                    </g>
                    <g id="right-ear" transform="translate(250.685644, 0.000000)">
                        <mask id="mask-10" sketch:name="outer" fill="white">
                            <use xlink:href="#path-9"></use>
                        </mask>
                        <use id="outer" fill="#A2D6D4" sketch:type="MSShapeGroup" xlink:href="#path-9"></use>
                        <path d="M16.6646426,69.0359575 C16.6646426,69.0359575 42.5460821,3.36538877 70.1017075,3.36538462 C97.6573329,3.36537777 86.829527,94.8863181 86.829527,94.8863181 L61.2709913,106.829928" id="inner" fill="#628B89" sketch:type="MSShapeGroup" mask="url(#mask-10)"></path>
                    </g>
                    <g id="left-ear" transform="translate(75.475248, 48.461538) scale(-1, 1) translate(-75.475248, -48.461538) translate(35.940594, 0.000000)">
                        <mask id="mask-12" sketch:name="outer" fill="white">
                            <use xlink:href="#path-11"></use>
                        </mask>
                        <use id="outer" fill="#A2D6D4" sketch:type="MSShapeGroup" xlink:href="#path-11"></use>
                        <path d="M16.6646426,69.0359575 C16.6646426,69.0359575 42.5460821,3.36538877 70.1017075,3.36538462 C97.6573329,3.36537777 86.829527,94.8863181 86.829527,94.8863181 L61.2709913,106.829928" id="inner" fill="#628B89" sketch:type="MSShapeGroup" mask="url(#mask-12)"></path>
                    </g>
                </g>
            </g>
        </g>
    </g>
</svg>