<?xml version="1.0" encoding="UTF-8" standalone="no"?>
<svg width="48px" height="48px" viewBox="0 0 48 48" version="1.1" xmlns="http://www.w3.org/2000/svg" xmlns:xlink="http://www.w3.org/1999/xlink" xmlns:sketch="http://www.bohemiancoding.com/sketch/ns">
    <!-- Generator: Sketch 3.0.3 (7891) - http://www.bohemiancoding.com/sketch -->
    <title>logo</title>
    <desc>Created with Sketch.</desc>
    <defs></defs>
    <g id="Page-1" stroke="none" stroke-width="1" fill="none" fill-rule="evenodd" sketch:type="MSPage">
        <g id="logo" sketch:type="MSArtboardGroup">
            <circle id="bg" fill="#93B9ED" sketch:type="MSShapeGroup" cx="24" cy="24" r="24"></circle>
            <g id="tree-(7677)" sketch:type="MSLayerGroup" transform="translate(6.000000, 10.000000)" fill="#FFFFFF">
                <path d="M31.3974545,13.3932235 C31.4118788,13.3318118 31.4201212,13.2683529 31.4201212,13.2038706 C31.4201212,12.6037412 30.759697,12.1179059 29.9447273,12.1179059 C29.650404,12.1179059 29.3766869,12.1817059 29.1462424,12.2908824 C28.766404,12.1861412 28.3666465,12.1076706 27.9521212,12.0582 C27.592202,11.6539059 26.9657778,11.3864235 26.2531515,11.3864235 C25.3478586,11.3864235 24.5813131,11.8180118 24.3240808,12.4130235 C22.8991717,12.8934 21.8025859,13.7545294 21.3272727,14.8002353 L26.0577374,14.8002353 C26.0567071,14.8009176 26.0560202,14.8012588 26.0553333,14.8022824 C25.7146465,15.0762471 24.8100404,15.5358118 22.5777172,15.5358118 C21.2039798,15.5358118 20.0606869,15.9960588 19.1787475,16.9042706 C18.7892929,17.3054941 18.4829495,17.7654 18.2411717,18.2464588 C17.9228081,16.6323529 17.797798,14.3352118 18.8964444,13.8906588 C22.066,12.6078353 24.2595152,10.1308941 24.5174343,7.61096471 L34,7.61096471 C33.1469091,5.73415294 31.2367273,4.17088235 28.740303,3.23981176 C28.8323434,3.07911765 28.8831717,2.90682353 28.8831717,2.72770588 C28.8831717,1.85838824 27.7089697,1.15385882 26.2603636,1.15385882 C25.9897374,1.15385882 25.7287273,1.17842353 25.4831717,1.22414118 C25.0178182,0.440117647 23.8731515,-0.0272941176 22.6117172,0.131694118 C21.0549293,0.327870588 19.9099192,1.40291765 20.0541616,2.53323529 C20.0596566,2.57451765 20.0668687,2.61511765 20.075798,2.65537647 C18.2559394,3.04124706 16.6380202,3.73656471 15.3559798,4.64955294 C15.3511717,4.64852941 15.3467071,4.64750588 15.341899,4.64614118 C15.1890707,4.44007059 14.9108889,4.30189412 14.5921818,4.30189412 C14.3967677,4.30189412 14.2171515,4.35443529 14.0715354,4.44177647 C13.657697,4.39844706 13.233899,4.37558824 12.802202,4.37558824 C11.7296566,4.37558824 10.7055354,4.51478824 9.76589899,4.76691765 C9.55949495,4.67787059 9.32389899,4.62737647 9.07387879,4.62737647 C8.34511111,4.62737647 7.74032323,5.05521176 7.62080808,5.61712941 C7.00674747,5.95421176 6.46618182,6.34963529 6.01662626,6.79145882 C5.59694949,6.59050588 5.09038384,6.4728 4.54432323,6.4728 C3.09571717,6.4728 1.92151515,7.29878824 1.92151515,8.31822353 C1.92151515,8.55977647 1.98814141,8.79041176 2.10834343,9.00194118 C1.11478788,9.63687059 0.360949495,10.4417059 -0.0508282828,11.3482118 L5.22260606,11.3482118 C5.27343434,11.6528824 5.45511111,12.2093412 6.09424242,12.7238353 C7.01189899,13.4614588 8.5439596,13.8360706 10.6485253,13.8360706 C11.5500404,13.8360706 12.258202,14.1124235 12.8128485,14.6815059 C14.2415354,16.1475412 14.1652929,19.0076235 14.1646061,19.0349176 L14.1690707,19.0352588 L13.5182626,28.6028706 L13.5196364,28.6028706 C13.5196364,28.6035529 13.5192929,28.6038941 13.5192929,28.6045765 C13.5192929,28.9478 14.8806667,29.2262 16.5600606,29.2262 C18.2391111,29.2262 19.6004848,28.9478 19.6004848,28.6045765 C19.6004848,28.6038941 19.6001414,28.6035529 19.6001414,28.6028706 L19.6004848,28.6028706 L19.1382222,21.2160588 C19.2625455,20.2522353 19.5846869,18.9318824 20.4140808,18.0809882 C20.9687273,17.5119059 21.6768889,17.2352118 22.5787475,17.2352118 C24.6829697,17.2352118 26.2150303,16.8612824 27.1323434,16.1229765 C27.7367879,15.6371412 27.9325455,15.1134353 27.9947071,14.8002353 L32.5428081,14.8002353 C32.3041212,14.2768706 31.9098586,13.7999059 31.3974545,13.3932235 L31.3974545,13.3932235 Z M13.5653131,9.32605882 C13.0408889,8.93029412 12.4316364,8.58672941 11.7567879,8.30935294 L13.4121414,8.30935294 C13.4420202,8.6652 13.4931919,9.00432941 13.5653131,9.32605882 L13.5653131,9.32605882 Z M15.6849899,13.7961529 C15.4899192,14.3461294 15.3738384,14.9773059 15.3374343,15.6801294 C15.0654343,14.9094118 14.6577778,14.1346 14.0468081,13.5054706 C13.1648687,12.5972588 12.0215758,12.1366706 10.6481818,12.1366706 C8.75208081,12.1366706 7.81107071,11.8077765 7.35533333,11.5317647 C7.24921212,11.4676235 7.16884848,11.4055294 7.1070303,11.3488941 L14.4551515,11.3488941 C14.6011111,11.5478 14.7611515,11.7334 14.936303,11.9063765 C15.3350303,12.2994118 15.768101,12.5822471 16.1898384,12.7862706 C15.9865253,13.0875294 15.8168687,13.4246118 15.6849899,13.7961529 L15.6849899,13.7961529 Z M17.196101,11.7760471 C16.7681818,11.629 16.2880606,11.3836941 15.8707879,10.9722353 C15.2347475,10.3444706 14.8573131,9.45127059 14.7436364,8.30969412 L20.6737172,8.30969412 C20.5648485,8.06950588 20.431596,7.83648235 20.2773939,7.61164706 L21.7933131,7.61164706 C21.6724242,8.17561176 21.3557778,8.77505882 20.8701616,9.34414118 C20.1396768,10.2011765 19.105596,10.9162824 17.8798788,11.4123529 C17.6360404,11.5106118 17.408,11.6330941 17.196101,11.7760471 L17.196101,11.7760471 Z" id="Shape" sketch:type="MSShapeGroup"></path>
            </g>
        </g>
    </g>
</svg>