<?xml version="1.0" encoding="UTF-8" standalone="no"?>
<svg width="1001px" height="400px" viewBox="0 0 1001 400" version="1.1" xmlns="http://www.w3.org/2000/svg" xmlns:xlink="http://www.w3.org/1999/xlink" xmlns:sketch="http://www.bohemiancoding.com/sketch/ns">
    <!-- Generator: Sketch 3.1.1 (8761) - http://www.bohemiancoding.com/sketch -->
    <title>scilifelab-logo-bp</title>
    <desc>Created with Sketch.</desc>
    <defs></defs>
    <g id="Page-1" stroke="none" stroke-width="1" fill="none" fill-rule="evenodd" sketch:type="MSPage">
        <g id="scilifelab-logo-bp" sketch:type="MSArtboardGroup" transform="translate(0.030172, 0.000000)">
            <g id="scilifelab-logo" sketch:type="MSLayerGroup" transform="translate(511.000000, 205.000000) scale(-1, 1) rotate(-180.000000) translate(-511.000000, -205.000000) translate(111.000000, 76.000000)" stroke="#FFFFFF" stroke-width="2">
                <path d="M463.271427,243.170508 C463.408628,243.122201 476.82722,256.755282 476.73767,256.774932 C457.910728,260.817123 433.49387,255.058823 418.01069,235.144258 C400.83509,213.053443 398.857587,182.107799 398.395047,174.832347 C398.386832,174.702165 390.077542,174.832347 390.077542,174.832347 L378.877171,163.04392 L396.953204,163.04392 C396.953204,163.04392 386.903022,59.884132 386.103641,54.2741082 C385.328085,48.8220222 380.928614,-0.893666261 337.123687,14.0265128 C337.071107,14.0444436 323.877623,2.09734207 324.000858,2.0532112 C344.978652,-5.40672278 396.454515,4.54050541 402.461785,79.2329376 C406.840717,133.685022 411.038083,163.135621 411.038083,163.135621 C411.038083,163.135621 438.387922,163.209309 438.31891,163.089771 C436.794089,160.464844 430.75067,151.766396 430.832827,135.597633 C430.971671,108.382234 451.062998,91.5052484 476.394256,91.389804 C506.798666,91.2522533 511.179241,112.296699 511.999983,115.814887 C512.006555,115.842725 510.108745,116.609079 510.092313,116.566504 C507.741821,110.454502 503.192826,98.619406 483.4178,98.352492 C458.834986,98.0208965 445.342454,126.388283 449.501207,149.412477 C449.534069,149.594241 509.851595,149.269195 509.848309,149.412477 C509.201739,184.410956 475.192309,183.028898 469.370712,182.016099 C469.279519,182.000543 469.278697,179.700661 469.370712,179.713761 C492.012172,182.937198 494.322408,158.438426 494.322408,153.649531 C494.322408,153.502156 450.027829,153.187754 450.055762,153.391624 C450.758199,158.585802 453.567123,169.029834 459.019838,173.911248 C460.317086,175.072242 412.257283,174.556427 412.257283,174.556427 C412.257283,174.556427 414.041718,193.616212 414.660355,197.949061 C416.693724,212.18802 418.172538,258.938081 463.271427,243.170508" id="path22" fill-opacity="0.303838315" fill="#FFFFFF" sketch:type="MSShapeGroup"></path>
                <path d="M2.36281171,95.8560117 C3.5956546,99.1133965 5.85559223,100.742904 9.14344761,100.742904 C10.1705424,100.742904 11.095586,100.605889 11.9177556,100.33512 C12.7391022,100.063535 15.2722734,99.0114503 19.5205611,97.1788655 C27.6706567,93.7175883 36.1639401,91.9869497 44.9995885,91.9869497 C54.6574065,91.9869497 63.0461699,94.1376066 70.1708167,98.4356582 C77.2938175,102.736156 82.6358624,108.848035 86.1985973,116.770477 C88.7317684,122.457444 90,128.416811 90,134.646131 C90,144.022734 87.1952413,152.243675 81.5881928,159.310586 C76.6625822,165.629619 68.6268826,171.403851 57.479448,176.636545 L43.0153534,183.565624 C28.3109449,190.495519 20.9583291,199.634791 20.9583291,210.982626 C20.9583291,213.836304 21.4883364,216.688351 22.5475278,219.542029 C23.6075423,222.396522 25.0617702,224.876669 26.9077425,226.98247 C31.3510795,232.146656 37.401721,234.728749 45.06049,234.728749 C50.3243505,234.728749 54.9734356,233.455645 59.0077453,230.910253 C63.0420549,228.36486 66.7339997,224.445233 70.0844025,219.151371 C71.9303748,216.231632 73.5195735,213.058251 74.8536445,209.631227 C76.1860695,206.203388 77.7769141,201.26593 79.6228865,194.818037 L81.9856982,194.818037 L81.2664027,235.237665 L78.903591,235.237665 C78.0814214,231.775572 76.4716479,230.044933 74.0750935,230.044933 C73.1146612,230.044933 72.020081,230.231699 70.7872381,230.60523 C69.5543952,230.977129 67.2253262,231.842449 63.8008541,233.201188 C59.2110244,235.100649 55.5462385,236.372938 52.8081421,237.019684 C50.0675768,237.663169 47.0883437,237.98695 43.8696197,237.98695 C33.9377452,237.98695 25.3407647,234.660241 18.0819701,228.009272 C13.9719451,224.274779 10.769681,219.794855 8.47600062,214.569501 C6.17985131,209.3417 5.03424564,203.912454 5.03424564,198.279315 C5.03424564,189.116391 7.97809011,181.343197 13.869894,174.964628 C15.9915689,172.65575 18.7831597,170.382758 22.2430206,168.143204 C25.7004124,165.902834 30.6836325,163.154365 37.1918579,159.896165 C44.5889152,156.162487 50.0848597,153.074741 53.6813373,150.631294 C57.2769919,148.187848 60.0669367,145.642455 62.0544638,142.995117 C63.9712135,140.414655 65.4962188,137.326908 66.6261876,133.730246 C67.7561564,130.131954 68.3215523,126.602984 68.3215523,123.141707 C68.3215523,115.131998 65.7529925,108.513651 60.6158728,103.288297 C55.4787531,98.0604962 48.9713507,95.4482269 41.0953117,95.4482269 C29.7939775,95.4482269 20.4093931,101.136009 12.9448504,112.511573 C8.97144216,118.673201 5.54779301,127.102928 2.67061093,137.802385 L0.307799226,137.904331 L-1.56319402e-13,95.8560117 L2.36281171,95.8560117" id="path24" sketch:type="MSShapeGroup"></path>
                <path d="M161.441222,102.472818 C157.111788,98.327614 151.649125,96.2554201 145.053233,96.2554201 C137.082576,96.2554201 130.141752,99.3130899 124.233242,105.429246 C120.452225,109.30175 117.462815,114.126255 115.265012,119.901944 C113.066381,125.676817 111.967065,131.588856 111.967065,137.637246 C111.967065,144.226953 113.168123,150.954643 115.571893,157.818683 C117.15097,162.302721 118.988953,166.023362 121.08336,168.978973 C123.177766,171.934585 125.735391,174.39705 128.757061,176.368818 C132.189009,178.610837 135.930321,179.731847 139.983478,179.731847 C143.072976,179.731847 145.681886,178.950488 147.811861,177.387769 C148.909522,176.572119 149.749932,175.620118 150.333917,174.534216 C150.917903,173.446682 151.690484,171.407963 152.652489,168.418877 C154.785773,161.962254 158.089509,158.735575 162.565352,158.735575 C164.630808,158.735575 166.386073,159.464681 167.831975,160.926973 C169.277876,162.387633 170,164.204273 170,166.380158 C170,169.641945 168.278649,172.631031 164.837602,175.349051 C159.192133,179.765322 151.377812,181.974682 141.39712,181.974682 C134.168439,181.974682 127.508027,180.716506 121.415884,178.20342 C115.323741,175.688701 110.176232,172.052973 105.978319,167.297051 C102.260995,163.151847 99.3336236,158.157517 97.2011668,152.314061 C95.0662284,146.469788 94,140.557749 94,134.579576 C94,122.34808 97.8546349,112.22307 105.564732,104.206178 C113.480795,96.0521198 124.392886,91.9746824 138.29935,91.9746824 C146.973106,91.9746824 153.7882,93.5725088 158.744632,96.7648957 C163.701063,99.958099 167.383646,105.156546 169.794033,112.35942 L167.728578,113.073012 C165.734259,108.180741 163.638198,104.64707 161.441222,102.472818 L161.441222,102.472818" id="path26" sketch:type="MSShapeGroup"></path>
                <path d="M169.144623,176.213956 C172.2667,176.010222 174.660988,175.487848 176.325818,174.645205 C177.990648,173.800932 179.412048,172.434285 180.592519,170.545264 C181.772156,168.790708 182.534126,166.514593 182.882598,163.713659 C183.228569,160.912726 183.402805,156.037781 183.402805,149.088011 L183.402805,124.086603 C183.402805,118.148168 183.24691,113.609792 182.934285,110.471475 C182.622494,107.333973 182.083947,104.989404 181.321142,103.437767 C180.2107,101.076083 178.753452,99.4054655 176.950234,98.425913 C175.145348,97.4463605 172.163326,96.6884704 168,96.149798 L168,94.013037 L214,94.013037 L214,96.149798 C208.796259,97.0951233 205.222335,98.4813286 203.280728,100.306784 C201.683425,101.723957 200.60883,103.498072 200.054442,105.628313 C199.498387,107.756925 199.22161,111.118534 199.22161,115.713956 L199.117402,123.419171 L199.117402,182.013037 L169.144623,178.350717 L169.144623,176.213956" id="path28" sketch:type="MSShapeGroup"></path>
                <path d="M338.664357,93.9983568 L340,136.049624 L337.534451,136.25502 C336.232549,129.89594 334.812142,124.767597 333.270763,120.86999 C331.730206,116.973205 329.760071,113.485569 327.36365,110.408728 C323.801935,105.895752 319.230465,102.562576 313.648416,100.409197 C308.065544,98.254997 301.20052,97.177897 293.050877,97.177897 C285.242756,97.177897 278.976015,98.3223671 274.250654,100.613772 C269.524469,102.904356 265.962755,106.511121 263.566334,111.434068 C262.195304,114.237321 261.270312,117.860518 260.792179,122.306123 C260.312401,126.750085 260.072924,133.519137 260.072924,142.614101 L260.072924,201.793805 C260.072924,208.972829 260.483574,214.271241 261.305698,217.690684 C262.127822,221.109306 263.70212,223.947066 266.031883,226.203965 C267.881044,227.981057 270.002602,229.279985 272.401492,230.10075 C274.797913,230.921515 277.87985,231.434185 281.647301,231.639582 L281.647301,233.998357 L216,233.998357 L216,231.639582 C219.698324,231.501555 222.729237,231.024213 225.091918,230.203448 C227.455421,229.382683 229.595084,228.082933 231.513373,226.306663 C233.840667,224.117135 235.433069,221.296628 236.29058,217.844321 C237.145622,214.391193 237.574377,209.040199 237.574377,201.793805 L237.574377,126.20373 C237.574377,119.229281 237.179363,114.049999 236.392625,110.665063 C235.605065,107.280947 234.148449,104.494126 232.026892,102.306241 C228.259441,98.4086337 222.916869,96.4598303 216,96.4598303 L216,93.9983568 L338.664357,93.9983568" id="path30" fill-opacity="0.303838315" fill="#FFFFFF" sketch:type="MSShapeGroup"></path>
                <path d="M343.144623,176.213956 C346.2667,176.010222 348.660154,175.487848 350.325818,174.645205 C351.990648,173.800932 353.412048,172.434285 354.592519,170.545264 C355.771322,168.790708 356.534126,166.514593 356.881764,163.713659 C357.228569,160.912726 357.402805,156.037781 357.402805,149.088011 L357.402805,124.086603 C357.402805,118.148168 357.246076,113.609792 356.934285,110.471475 C356.621661,107.333973 356.083947,104.989404 355.321142,103.437767 C354.2107,101.076083 352.753452,99.4054655 350.950234,98.425913 C349.145348,97.4463605 346.162492,96.6884704 342,96.149798 L342,94.013037 L388,94.013037 L388,96.149798 C382.796259,97.0951233 379.221501,98.4813286 377.279894,100.306784 C375.683425,101.723957 374.60883,103.498072 374.053608,105.628313 C373.497553,107.756925 373.22161,111.118534 373.22161,115.713956 L373.117402,123.419171 L373.117402,182.013037 L343.144623,178.350717 L343.144623,176.213956" id="path32" fill-opacity="0.303838315" fill="#FFFFFF" sketch:type="MSShapeGroup"></path>
                <path d="M626,136.049624 L623.534435,136.25502 C622.232524,129.89594 620.812108,124.767597 619.271541,120.86999 C617.730151,116.973205 615.760826,113.485569 613.363566,110.408728 C609.801828,105.895752 605.230327,102.562576 599.649064,100.409197 C594.066155,98.254997 587.200263,97.177897 579.050565,97.177897 C571.242393,97.177897 564.97561,98.3223671 560.250217,100.613772 C555.524002,102.904356 551.962264,106.511121 549.565826,111.434068 C548.194788,114.237321 547.270612,117.860518 546.791654,122.306123 C546.311872,126.750085 546.072393,133.519137 546.072393,142.614101 L546.072393,201.793805 C546.072393,208.972829 546.483869,214.271241 547.305999,217.690684 C548.127305,221.109306 549.702436,223.947066 552.031392,226.203965 C553.880566,227.981057 556.00296,229.279985 558.401043,230.10075 C560.797481,230.921515 563.879437,231.434185 567.646914,231.639582 L567.646914,233.998357 L502,233.998357 L502,231.639582 C505.698348,231.501555 508.728459,231.024213 511.091978,230.203448 C513.454675,229.382683 515.594351,228.082933 517.512653,226.306663 C519.839962,224.117135 521.432375,221.296628 522.289892,217.844321 C523.145762,214.391193 523.573697,209.040199 523.573697,201.793805 L523.573697,126.20373 C523.573697,119.229281 523.17868,114.049999 522.392761,110.665063 C521.604372,107.280947 520.148569,104.494126 518.026175,102.306241 C514.258699,98.4086337 508.916915,96.4598303 502,96.4598303 L502,93.9983568 L624.664348,93.9983568 L626,136.049624 Z" id="path34" sketch:type="MSShapeGroup"></path>
                <path d="M708.003533,99.211848 C706.807195,98.4631475 705.149401,98.090022 703.032615,98.090022 C698.589662,98.090022 695.788081,100.501866 694.62705,105.327188 C694.079379,107.636157 693.806775,111.985478 693.806775,118.373518 L693.806775,156.085323 C693.806775,160.909828 693.53335,164.341439 692.985679,166.380158 C691.889515,170.388196 689.117493,173.649982 684.669614,176.164702 C681.588039,177.862137 677.755982,179.255846 673.170158,180.343381 C668.583513,181.430099 664.169299,181.974682 659.925051,181.974682 C656.161145,181.974682 652.311024,181.582778 648.375508,180.802235 C644.439172,180.02006 641.136722,179.019071 638.468159,177.796003 C633.538296,175.416001 631.075006,172.495498 631.075006,169.030411 C631.075006,166.718992 631.859974,164.800294 633.433195,163.271051 C635.003953,161.742624 636.951593,160.978411 639.275296,160.978411 C642.828181,160.978411 645.288186,162.573788 646.655311,165.768624 L649.217953,171.679847 C650.310833,174.192933 651.950562,176.164702 654.138784,177.591886 C656.324543,179.019071 658.818213,179.731847 661.621436,179.731847 C663.943497,179.731847 666.182627,179.222371 668.334721,178.20342 C670.487636,177.184469 672.246424,175.824235 673.61355,174.125983 C676.620405,170.456779 678.123833,164.647615 678.123833,156.696857 C678.123833,152.95907 677.714106,150.036933 676.89383,147.931264 C676.074376,145.824779 674.570127,143.990177 672.383548,142.427459 C670.469572,141.001091 668.094961,139.778023 665.259715,138.758255 C662.423648,137.739304 658.033245,136.481128 652.088507,134.986993 C647.030552,133.695342 643.170578,132.421653 640.505299,131.16511 C637.840841,129.906934 635.482652,128.225011 633.433195,126.119342 C629.809697,122.313788 628,117.591342 628,111.952003 C628,105.836663 630.207107,100.977867 634.621322,97.3764296 C639.035536,93.7758091 645.005729,91.9746824 652.535183,91.9746824 C658.41916,91.9746824 663.58632,93.1977503 668.035842,95.6438862 C670.361187,96.9339044 673.817182,99.6192651 678.404648,103.695886 C680.662663,99.8233819 682.851706,97.104546 684.97424,95.5418278 C688.190475,93.1642752 692.227807,91.9746824 697.087055,91.9746824 C705.902347,91.9746824 711.539995,95.5418278 714,102.676935 L712.257633,103.695886 C710.617083,101.453867 709.198228,99.958099 708.003533,99.211848 L708.003533,99.211848 Z M678,126.828383 C678,118.236052 676.95929,111.673526 674.880297,107.14162 C673.403735,103.691681 671.206681,100.933518 668.288328,98.8711961 C665.370783,96.8064352 662.268062,95.7756806 658.980972,95.7756806 C655.224067,95.7756806 652.119728,97.2299551 649.671999,100.139317 C647.22346,103.047866 646,106.735984 646,111.20042 C646,116.40947 647.575215,120.976331 650.730498,124.900189 C652.27256,126.793429 653.982817,128.417599 655.861269,129.771887 C657.739722,131.123736 661.12789,133.120214 666.024967,135.758881 C670.385111,138.057756 674.376519,140.731378 678,143.775681 L678,126.828383 L678,126.828383 Z" id="path36" sketch:type="MSShapeGroup"></path>
                <path d="M731.415365,240.029469 L700,235.735959 L700,233.282993 C705.74897,233.282993 709.838223,231.630761 712.269404,228.326298 C714.698117,225.020197 715.913708,219.551785 715.913708,211.921062 L715.913708,92.029469 L720.021055,92.029469 C722.690748,97.6812802 725.770847,100.508414 729.261352,100.508414 C730.493392,100.508414 731.89239,100.201384 733.471506,99.5881422 L739.220476,97.2407943 C743.735761,95.4714818 749.246219,94.5847787 755.751848,94.5847787 C768.138041,94.5847787 778.303602,98.2928843 786.24853,105.713189 C795.418918,114.219972 800,125.85928 800,140.628659 C800,155.398038 795.213304,166.83266 785.648137,174.932525 C777.925272,181.534902 768.870027,184.83609 758.482404,184.83609 C751.170767,184.83609 744.878976,183.166664 739.615255,179.832726 C737.024517,178.129732 734.285738,175.508104 731.415365,171.96866 L731.415365,240.029469 L731.415365,240.029469 Z M735.632236,169.763611 C737.245662,173.685046 739.734717,176.868729 743.091292,179.312174 C746.447868,181.755619 750.080104,182.978584 753.979893,182.978584 C757.198638,182.978584 760.360629,182.099242 763.449651,180.345525 C766.546781,178.590153 769.36825,176.026647 771.922166,172.655007 C775.149019,168.59281 777.629966,163.653755 779.381223,157.837842 C781.124372,152.021929 782,145.879782 782,139.409744 C782,127.089845 779.332577,116.937665 773.989622,108.954033 C768.646668,100.968744 761.876763,96.9785841 753.679909,96.9785841 C749.78012,96.9785841 746.30193,97.9407269 743.245338,99.8691525 C740.180639,101.795922 737.878061,104.446369 736.337603,107.818837 C735.056592,110.639853 734.01881,115.147517 733.208043,121.343484 C732.405383,127.536968 732,134.317508 732,141.681792 C732,154.620212 733.208043,163.981646 735.632236,169.763611 L735.632236,169.763611 L735.632236,169.763611 Z" id="path38" sketch:type="MSShapeGroup"></path>
                <path d="M190,197.974359 C195.522834,197.974359 200,202.451525 200,207.974359 C200,213.498047 195.522834,217.974359 190,217.974359 C184.477166,217.974359 180,213.498047 180,207.974359 C180,202.451525 184.477166,197.974359 190,197.974359" id="path40" sketch:type="MSShapeGroup"></path>
                <path d="M366.000427,197.974359 C371.523025,197.974359 376,202.451525 376,207.974359 C376,213.498047 371.523025,217.974359 366.000427,217.974359 C360.477829,217.974359 356,213.498047 356,207.974359 C356,202.451525 360.477829,197.974359 366.000427,197.974359" id="path42" fill-opacity="0.303838315" fill="#FFFFFF" sketch:type="MSShapeGroup"></path>
            </g>
            <g id="lines" sketch:type="MSLayerGroup" transform="translate(81.000000, 46.000000)" stroke="#FFFFFF" stroke-dasharray="3,2">
                <circle id="Oval-1" sketch:type="MSShapeGroup" cx="784" cy="125" r="20"></circle>
                <circle id="Oval-2" sketch:type="MSShapeGroup" cx="689.5" cy="179.5" r="13.5"></circle>
                <circle id="Oval-4" sketch:type="MSShapeGroup" cx="666" cy="142" r="15"></circle>
                <circle id="Oval-8" sketch:type="MSShapeGroup" cx="454.5" cy="192.5" r="20.5"></circle>
                <circle id="Oval-6" sketch:type="MSShapeGroup" cx="373.5" cy="106.5" r="45.5"></circle>
                <ellipse id="Oval-5" sketch:type="MSShapeGroup" cx="247.5" cy="173.5" rx="19.5" ry="19.5"></ellipse>
                <ellipse id="Oval-9" sketch:type="MSShapeGroup" cx="69.5" cy="163.5" rx="29.5" ry="29.5"></ellipse>
                <circle id="Oval-7" sketch:type="MSShapeGroup" cx="75" cy="89" r="40"></circle>
                <ellipse id="Oval-3" sketch:type="MSShapeGroup" cx="369" cy="234" rx="55" ry="55"></ellipse>
                <path d="M298.469828,113.5 L537.469828,3.5" id="Line" stroke-linecap="square" sketch:type="MSShapeGroup"></path>
                <path d="M547.469828,216.5 L834.469822,75.5" id="Line-4" stroke-linecap="square" sketch:type="MSShapeGroup"></path>
                <path d="M203.469828,7.5 L631.469828,141.5" id="Line-3" stroke-linecap="square" sketch:type="MSShapeGroup"></path>
                <path d="M0.469827533,59.5 L268.469818,214.5" id="Line-2" stroke-linecap="square" sketch:type="MSShapeGroup"></path>
                <path d="M267.469818,15.4371956 L267.469818,214.5" id="Line-5" stroke-linecap="square" sketch:type="MSShapeGroup"></path>
                <path d="M255.469833,0.5 L47.4698181,208.5" id="Line-6" stroke-linecap="square" sketch:type="MSShapeGroup"></path>
            </g>
            <text id="Open-Source-is-in-ou" sketch:type="MSTextLayer" font-family="Roboto" font-size="33" font-weight="260" fill="#B8E3FF">
                <tspan x="526" y="310">Open Source is in our DNA</tspan>
            </text>
        </g>
    </g>
</svg>