<?xml version="1.0" encoding="UTF-8" standalone="no"?>
<svg width="400px" height="129px" viewBox="0 0 400 129" version="1.1" xmlns="http://www.w3.org/2000/svg" xmlns:xlink="http://www.w3.org/1999/xlink" xmlns:sketch="http://www.bohemiancoding.com/sketch/ns">
    <!-- Generator: Sketch 3.0.3 (7891) - http://www.bohemiancoding.com/sketch -->
    <title>scilifelab-logo</title>
    <desc>Created with Sketch.</desc>
    <defs></defs>
    <g id="Page-1" stroke="none" stroke-width="1" fill="none" fill-rule="evenodd" sketch:type="MSPage">
        <g id="scilifelab-logo" sketch:type="MSArtboardGroup">
            <g sketch:type="MSLayerGroup" transform="translate(200.000000, 64.500000) scale(-1, 1) rotate(-180.000000) translate(-200.000000, -64.500000) ">
                <path d="M231.635714,121.585254 C231.704314,121.561101 238.41361,128.377641 238.368835,128.387466 C228.955364,130.408561 216.746935,127.529411 209.005345,117.572129 C200.417545,106.526722 199.428794,91.0538997 199.197524,87.4161736 C199.193416,87.3510826 195.038771,87.4161736 195.038771,87.4161736 L189.438585,81.5219601 L198.476602,81.5219601 C198.476602,81.5219601 193.451511,29.942066 193.05182,27.1370541 C192.664042,24.4110111 190.464307,-0.446833131 168.561843,7.01325642 C168.535553,7.02222178 161.938812,1.04867104 162.000429,1.0266056 C172.489326,-2.70336139 198.227258,2.27025271 201.230893,39.6164688 C203.420358,66.8425112 205.519042,81.5678104 205.519042,81.5678104 C205.519042,81.5678104 219.193961,81.6046543 219.159455,81.5448853 C218.397045,80.2324218 215.375335,75.8831981 215.416413,67.7988164 C215.485835,54.1911171 225.531499,45.7526242 238.197128,45.694902 C253.399333,45.6261266 255.589621,56.1483497 255.999991,57.9074437 C256.003278,57.9213625 255.054372,58.3045396 255.046157,58.283252 C253.87091,55.2272509 251.596413,49.309703 241.7089,49.176246 C229.417493,49.0104482 222.671227,63.1941413 224.750603,74.7062385 C224.767035,74.7971203 254.925798,74.6345975 254.924154,74.7062385 C254.600869,92.2054778 237.596155,91.5144491 234.685356,91.0080494 C234.639759,91.0002713 234.639349,89.8503306 234.685356,89.8568806 C246.006086,91.4685988 247.161204,79.2192132 247.161204,76.8247657 C247.161204,76.7510778 225.013914,76.593877 225.027881,76.6958119 C225.379099,79.2929011 226.783562,84.5149171 229.509919,86.9556242 C230.158543,87.5361211 206.128642,87.2782134 206.128642,87.2782134 C206.128642,87.2782134 207.020859,96.8081061 207.330178,98.9745304 C208.346862,106.09401 209.086269,129.469041 231.635714,121.585254" id="path22" fill="#80CC28" sketch:type="MSShapeGroup"></path>
                <path d="M1.18140585,47.9280059 C1.7978273,49.5566983 2.92779612,50.3714522 4.5717238,50.3714522 C5.08527118,50.3714522 5.54779301,50.3029444 5.9588778,50.1675599 C6.3695511,50.0317675 7.63613669,49.5057252 9.76028055,48.5894328 C13.8353283,46.8587942 18.0819701,45.9934749 22.4997943,45.9934749 C27.3287032,45.9934749 31.5230849,47.0688033 35.0854083,49.2178291 C38.6469087,51.3680782 41.3179312,54.4240174 43.0992986,58.3852387 C44.3658842,61.228722 45,64.2084054 45,67.3230655 C45,72.0113671 43.5976206,76.1218377 40.7940964,79.6552928 C38.3312911,82.8148093 34.3134413,85.7019255 28.739724,88.3182726 L21.5076767,91.7828121 C14.1554724,95.2477594 10.4791646,99.8173956 10.4791646,105.491313 C10.4791646,106.918152 10.7441682,108.344175 11.2737639,109.771014 C11.8037711,111.198261 12.5308851,112.438335 13.4538713,113.491235 C15.6755397,116.073328 18.7008605,117.364375 22.530245,117.364375 C25.1621753,117.364375 27.4867178,116.727823 29.5038726,115.455126 C31.5210275,114.18243 33.3669998,112.222616 35.0422012,109.575685 C35.9651874,108.115816 36.7597868,106.529125 37.4268222,104.815614 C38.0930347,103.101694 38.8884571,100.632965 39.8114433,97.4090187 L40.9928491,97.4090187 L40.6332013,117.618832 L39.4517955,117.618832 C39.0407107,115.887786 38.235824,115.022467 37.0375468,115.022467 C36.5573306,115.022467 36.0100405,115.115849 35.3936191,115.302615 C34.7771976,115.488565 33.6126631,115.921224 31.900427,116.600594 C29.6055122,117.550325 27.7731192,118.186469 26.4040711,118.509842 C25.0337884,118.831584 23.5441718,118.993475 21.9348098,118.993475 C16.9688726,118.993475 12.6703823,117.330121 9.04098503,114.004636 C6.98597255,112.137389 5.38484048,109.897428 4.23800031,107.284751 C3.08992566,104.67085 2.51712282,101.956227 2.51712282,99.1396573 C2.51712282,94.5581953 3.98904505,90.6715986 6.93494701,87.4823138 C7.99578445,86.3278751 9.39157987,85.191379 11.1215103,84.071602 C12.8502062,82.9514172 15.3418163,81.5771825 18.5959289,79.9480823 C22.2944576,78.0812436 25.0424298,76.5373704 26.8406686,75.3156472 C28.6384959,74.093924 30.0334684,72.8212277 31.0272319,71.4975583 C31.9856068,70.2073273 32.7481094,68.6634541 33.3130938,66.8651232 C33.8780782,65.0659768 34.1607762,63.301492 34.1607762,61.5708534 C34.1607762,57.5659991 32.8764962,54.2568256 30.3079364,51.6441485 C27.7393765,49.0302481 24.4856754,47.7241135 20.5476558,47.7241135 C14.8969888,47.7241135 10.2046965,50.5680045 6.47242518,56.2557866 C4.48572108,59.3366006 2.7738965,63.5514641 1.33530547,68.9011926 L0.153899613,68.9521657 L1.0658141e-14,47.9280059 L1.18140585,47.9280059" id="path24" fill="#4B6269" sketch:type="MSShapeGroup"></path>
                <path d="M80.7206108,51.2364091 C78.5558942,49.163807 75.8245627,48.1277101 72.5266165,48.1277101 C68.541288,48.1277101 65.0708758,49.656545 62.1166208,52.714623 C60.2261126,54.650875 58.7314076,57.0631275 57.6325058,59.9509721 C56.5331904,62.8384085 55.9835327,65.7944281 55.9835327,68.8186228 C55.9835327,72.1134763 56.5840616,75.4773213 57.7859467,78.9093414 C58.5754851,81.1513604 59.4944764,83.011681 60.5416798,84.4894867 C61.5888832,85.9672924 62.8676956,87.198525 64.3785305,88.1844092 C66.0945047,89.3054187 67.9651607,89.8659234 69.9917391,89.8659234 C71.5364882,89.8659234 72.840943,89.4752439 73.9059306,88.6938847 C74.4547612,88.2860593 74.874966,87.8100589 75.1669587,87.2671082 C75.4589514,86.7233411 75.8452421,85.7039817 76.3262443,84.2094384 C77.3928863,80.981127 79.0447545,79.3677877 81.2826761,79.3677877 C82.315404,79.3677877 83.1930365,79.7323403 83.9159873,80.4634867 C84.6389382,81.1938167 85,82.1021365 85,83.1900791 C85,84.8209724 84.1393245,86.3155157 82.4188008,87.6745254 C79.5960666,89.882661 75.6889061,90.9873412 70.6985601,90.9873412 C67.0842195,90.9873412 63.7540134,90.3582532 60.707942,89.1017101 C57.6618705,87.8443506 55.0881159,86.0264863 52.9891597,83.6485254 C51.1304977,81.5759234 49.6668118,79.0787583 48.6005834,76.1570303 C47.5331142,73.2348941 47,70.2788744 47,67.2897879 C47,61.17404 48.9273175,56.1115349 52.7823659,52.103089 C56.7403977,48.0260599 62.1964431,45.9873412 69.1496751,45.9873412 C73.486553,45.9873412 76.8940998,46.7862544 79.3723158,48.3824478 C81.8505317,49.9790495 83.6918229,52.578273 84.8970167,56.17971 L83.8642889,56.5365061 C82.8671296,54.0903703 81.819099,52.3235352 80.7206108,51.2364091 L80.7206108,51.2364091" id="path26" fill="#4B6269" sketch:type="MSShapeGroup"></path>
                <path d="M84.5723114,88.1069778 C86.1333502,88.0051109 87.330494,87.7439241 88.1629091,87.3226024 C88.9953242,86.9004658 89.7060241,86.2171423 90.2962594,85.272632 C90.8860778,84.3953539 91.267063,83.2572964 91.4412991,81.8568297 C91.6142847,80.4563629 91.7014027,78.0188907 91.7014027,74.5440056 L91.7014027,62.0433017 C91.7014027,59.0740841 91.623455,56.8048961 91.4671427,55.2357377 C91.3112472,53.6669867 91.0419733,52.494702 90.6605712,51.7188833 C90.10535,50.5380417 89.3767262,49.7027328 88.4751169,49.2129565 C87.5726739,48.7231802 86.081663,48.3442352 84,48.074899 L84,47.0065185 L107,47.0065185 L107,48.074899 C104.39813,48.5475616 102.611167,49.2406643 101.640364,50.1533921 C100.841712,50.8619786 100.304415,51.7490359 100.027221,52.8141567 C99.7491935,53.8784625 99.610805,55.5592671 99.610805,57.8569778 L99.5587009,61.7095856 L99.5587009,91.0065185 L84.5723114,89.1753583 L84.5723114,88.1069778" id="path28" fill="#4B6269" sketch:type="MSShapeGroup"></path>
                <path d="M169.332179,46.9991784 L170,68.0248119 L168.767225,68.1275102 C168.116274,64.9479701 167.406071,62.3837983 166.635381,60.4349949 C165.865103,58.4866023 164.880036,56.7427847 163.681825,55.2043638 C161.900968,52.9478762 159.615232,51.2812878 156.824208,50.2045985 C154.032772,49.1274985 150.60026,48.5889485 146.525438,48.5889485 C142.621378,48.5889485 139.488008,49.1611835 137.125327,50.3068861 C134.762235,51.4521778 132.981378,53.2555604 131.783167,55.7170338 C131.097652,57.1186606 130.635156,58.930259 130.39609,61.1530616 C130.156201,63.3750425 130.036462,66.7595685 130.036462,71.3070504 L130.036462,100.896903 C130.036462,104.486414 130.241787,107.13562 130.652849,108.845342 C131.063911,110.554653 131.85106,111.973533 133.015941,113.101982 C133.940522,113.990528 135.001301,114.639992 136.200746,115.050375 C137.398957,115.460757 138.939925,115.717093 140.82365,115.819791 L140.82365,116.999178 L108,116.999178 L108,115.819791 C109.849162,115.750778 111.364619,115.512107 112.545959,115.101724 C113.727711,114.691342 114.797542,114.041467 115.756686,113.153332 C116.920333,112.058567 117.716535,110.648314 118.14529,108.922161 C118.572811,107.195596 118.787189,104.5201 118.787189,100.896903 L118.787189,63.101865 C118.787189,59.6146407 118.589681,57.0249997 118.196313,55.3325313 C117.802533,53.6404737 117.074225,52.2470628 116.013446,51.1531203 C114.12972,49.2043168 111.458435,48.2299151 108,48.2299151 L108,46.9991784 L169.332179,46.9991784" id="path30" fill="#80CC28" sketch:type="MSShapeGroup"></path>
                <path d="M171.572311,88.1069778 C173.13335,88.0051109 174.330077,87.7439241 175.162909,87.3226024 C175.995324,86.9004658 176.706024,86.2171423 177.296259,85.272632 C177.885661,84.3953539 178.267063,83.2572964 178.440882,81.8568297 C178.614285,80.4563629 178.701403,78.0188907 178.701403,74.5440056 L178.701403,62.0433017 C178.701403,59.0740841 178.623038,56.8048961 178.467143,55.2357377 C178.31083,53.6669867 178.041973,52.494702 177.660571,51.7188833 C177.10535,50.5380417 176.376726,49.7027328 175.475117,49.2129565 C174.572674,48.7231802 173.081246,48.3442352 171,48.074899 L171,47.0065185 L194,47.0065185 L194,48.074899 C191.39813,48.5475616 189.610751,49.2406643 188.639947,50.1533921 C187.841712,50.8619786 187.304415,51.7490359 187.026804,52.8141567 C186.748777,53.8784625 186.610805,55.5592671 186.610805,57.8569778 L186.558701,61.7095856 L186.558701,91.0065185 L171.572311,89.1753583 L171.572311,88.1069778" id="path32" fill="#80CC28" sketch:type="MSShapeGroup"></path>
                <path d="M312.332174,46.9991784 L313,68.0248119 L311.767217,68.1275102 C311.116262,64.9479701 310.406054,62.3837983 309.635771,60.4349949 C308.865076,58.4866023 307.880413,56.7427847 306.681783,55.2043638 C304.900914,52.9478762 302.615164,51.2812878 299.824532,50.2045985 C297.033077,49.1274985 293.600131,48.5889485 289.525283,48.5889485 C285.621196,48.5889485 282.487805,49.1611835 280.125109,50.3068861 C277.762001,51.4521778 275.981132,53.2555604 274.782913,55.7170338 C274.097394,57.1186606 273.635306,58.930259 273.395827,61.1530616 C273.155936,63.3750425 273.036197,66.7595685 273.036197,71.3070504 L273.036197,100.896903 C273.036197,104.486414 273.241935,107.13562 273.652999,108.845342 C274.063653,110.554653 274.851218,111.973533 276.015696,113.101982 C276.940283,113.990528 278.00148,114.639992 279.200522,115.050375 C280.39874,115.460757 281.939719,115.717093 283.823457,115.819791 L283.823457,116.999178 L251,116.999178 L251,115.819791 C252.849174,115.750778 254.364229,115.512107 255.545989,115.101724 C256.727337,114.691342 257.797175,114.041467 258.756326,113.153332 C259.919981,112.058567 260.716188,110.648314 261.144946,108.922161 C261.572881,107.195596 261.786849,104.5201 261.786849,100.896903 L261.786849,63.101865 C261.786849,59.6146407 261.58934,57.0249997 261.19638,55.3325313 C260.802186,53.6404737 260.074285,52.2470628 259.013088,51.1531203 C257.12935,49.2043168 254.458457,48.2299151 251,48.2299151 L251,46.9991784 L312.332174,46.9991784" id="path34" fill="#4B6269" sketch:type="MSShapeGroup"></path>
                <path d="M354.001766,49.605924 C353.403598,49.2315738 352.574701,49.045011 351.516307,49.045011 C349.294831,49.045011 347.89404,50.2509331 347.313525,52.6635938 C347.03969,53.8180785 346.903388,55.992739 346.903388,59.1867588 L346.903388,78.0426614 C346.903388,80.4549138 346.766675,82.1707197 346.492839,83.1900791 C345.944757,85.1940979 344.558747,86.8249912 342.334807,88.0823508 C340.794019,88.9310685 338.877991,89.6279232 336.585079,90.1716904 C334.291757,90.7150494 332.084649,90.9873412 329.962526,90.9873412 C328.080572,90.9873412 326.155512,90.7913891 324.187754,90.4011177 C322.219586,90.0100299 320.568361,89.5095355 319.234079,88.8980015 C316.769148,87.7080005 315.537503,86.2477489 315.537503,84.5152054 C315.537503,83.359496 315.929987,82.400147 316.716598,81.6355255 C317.501976,80.8713121 318.475797,80.4892055 319.637648,80.4892055 C321.41409,80.4892055 322.644093,81.286894 323.327656,82.8843121 L324.608977,85.8399235 C325.155416,87.0964666 325.975281,88.0823508 327.069392,88.7959431 C328.162272,89.5095355 329.409107,89.8659234 330.810718,89.8659234 C331.971749,89.8659234 333.091314,89.6111857 334.16736,89.1017101 C335.243818,88.5922346 336.123212,87.9121173 336.806775,87.0629914 C338.310203,85.2283895 339.061916,82.3238073 339.061916,78.3484284 C339.061916,76.4795349 338.857053,75.0184667 338.446915,73.9656322 C338.037188,72.9123895 337.285064,71.9950886 336.191774,71.2137294 C335.234786,70.5005453 334.04748,69.8890113 332.629857,69.3791275 C331.211824,68.869652 329.016622,68.240564 326.044253,67.4934965 C323.515276,66.8476709 321.585289,66.2108264 320.252649,65.5825549 C318.92042,64.9534669 317.741326,64.1125056 316.716598,63.0596711 C314.904848,61.1568942 314,58.795671 314,55.9760014 C314,52.9183316 315.103554,50.4889333 317.310661,48.6882148 C319.517768,46.8879046 322.502864,45.9873412 326.267592,45.9873412 C329.20958,45.9873412 331.79316,46.5988752 334.017921,47.8219431 C335.180593,48.4669522 336.908591,49.8096326 339.202324,51.847943 C340.331332,49.911691 341.425853,48.552273 342.48712,47.7709139 C344.095238,46.5821376 346.113903,45.9873412 348.543528,45.9873412 C352.951173,45.9873412 355.769998,47.7709139 357,51.3384675 L356.128817,51.847943 C355.308541,50.7269335 354.599114,49.9790495 354.001766,49.605924 L354.001766,49.605924 Z M339,63.4141917 C339,59.1180259 338.479645,55.8367632 337.440149,53.5708101 C336.701867,51.8458406 335.603341,50.4667591 334.144164,49.435598 C332.685392,48.4032176 331.134031,47.8878403 329.490486,47.8878403 C327.612033,47.8878403 326.059864,48.6149775 324.835999,50.0696585 C323.61173,51.523933 323,53.367992 323,55.6002099 C323,58.204735 323.787608,60.4881654 325.365249,62.4500947 C326.13628,63.3967144 326.991408,64.2087995 327.930635,64.8859435 C328.869861,65.5618682 330.563945,66.5601069 333.012483,67.8794403 C335.192556,69.0288781 337.18826,70.3656888 339,71.8878403 L339,63.4141917 L339,63.4141917 Z" id="path36" fill="#4B6269" sketch:type="MSShapeGroup"></path>
                <path d="M365.707683,120.014735 L350,117.86798 L350,116.641496 C352.874485,116.641496 354.919111,115.815381 356.134702,114.163149 C357.349059,112.510099 357.956854,109.775893 357.956854,105.960531 L357.956854,46.0147345 L360.010527,46.0147345 C361.345374,48.8406401 362.885424,50.254207 364.630676,50.254207 C365.246696,50.254207 365.946195,50.1006919 366.735753,49.7940711 L369.610238,48.6203971 C371.867881,47.7357409 374.623109,47.2923894 377.875924,47.2923894 C384.069021,47.2923894 389.151801,49.1464422 393.124265,52.8565946 C397.709459,57.1099858 400,62.9296401 400,70.3143296 C400,77.699019 397.606652,83.41633 392.824068,87.4662625 C388.962636,90.7674508 384.435014,92.4180449 379.241202,92.4180449 C375.585383,92.4180449 372.439488,91.5833322 369.807627,89.9163632 C368.512259,89.0648662 367.142869,87.7540521 365.707683,85.9843302 L365.707683,120.014735 L365.707683,120.014735 Z M367.816118,84.8818053 C368.622831,86.8425232 369.867359,88.4343644 371.545646,89.6560871 C373.223934,90.8778097 375.040052,91.489292 376.989946,91.489292 C378.599319,91.489292 380.180315,91.0496209 381.724826,90.1727627 C383.273391,89.2950765 384.684125,88.0133235 385.961083,86.3275035 C387.574509,84.2964052 388.814983,81.8268777 389.690611,78.9189212 C390.562186,76.0109646 391,72.9398909 391,69.704872 C391,63.5449225 389.666288,58.4688326 386.994811,54.4770164 C384.323334,50.4843721 380.938382,48.489292 376.839955,48.489292 C374.89006,48.489292 373.150965,48.9703634 371.622669,49.9345763 C370.090319,50.8979611 368.93903,52.2231844 368.168802,53.9094184 C367.528296,55.3199263 367.009405,57.5737583 366.604021,60.6717422 C366.202692,63.7684841 366,67.158754 366,70.8408961 C366,77.3101058 366.604021,81.9908229 367.816118,84.8818053 L367.816118,84.8818053 L367.816118,84.8818053 Z" id="path38" fill="#4B6269" sketch:type="MSShapeGroup"></path>
                <path d="M95,98.9871795 C97.761417,98.9871795 100,101.225763 100,103.987179 C100,106.749023 97.761417,108.987179 95,108.987179 C92.238583,108.987179 90,106.749023 90,103.987179 C90,101.225763 92.238583,98.9871795 95,98.9871795" id="path40" fill="#4B6269" sketch:type="MSShapeGroup"></path>
                <path d="M183.000213,98.9871795 C185.761513,98.9871795 188,101.225763 188,103.987179 C188,106.749023 185.761513,108.987179 183.000213,108.987179 C180.238914,108.987179 178,106.749023 178,103.987179 C178,101.225763 180.238914,98.9871795 183.000213,98.9871795" id="path42" fill="#80CC28" sketch:type="MSShapeGroup"></path>
            </g>
        </g>
    </g>
</svg>